<!DOCTYPE svg PUBLIC "-//W3C//DTD SVG 1.1//EN" "http://www.w3.org/Graphics/SVG/1.1/DTD/svg11.dtd">
<!-- Uploaded to: SVG Repo, www.svgrepo.com, Transformed by: SVG Repo Mixer Tools -->
<svg version="1.0" id="Layer_1" xmlns="http://www.w3.org/2000/svg" xmlns:xlink="http://www.w3.org/1999/xlink" width="64px" height="64px" viewBox="0 0 64.00 64.00" enable-background="new 0 0 64 64" xml:space="preserve" fill="#000000" stroke="#000000" stroke-width="0.32">
<g id="SVGRepo_bgCarrier" stroke-width="0" transform="translate(32,32), scale(0)">
<path transform="translate(0, 0), scale(4)" fill="#7ed0ec" d="M9.166.33a2.25 2.25 0 00-2.332 0l-5.25 3.182A2.25 2.25 0 00.5 5.436v5.128a2.25 2.25 0 001.084 1.924l5.25 3.182a2.25 2.25 0 002.332 0l5.25-3.182a2.25 2.25 0 001.084-1.924V5.436a2.25 2.25 0 00-1.084-1.924L9.166.33z" strokewidth="0"/>
</g>
<g id="SVGRepo_tracerCarrier" stroke-linecap="round" stroke-linejoin="round"/>
<g id="SVGRepo_iconCarrier"> <g> <path fill="#F9EBB2" d="M62,44c0,1.104-0.896,2-2,2c0,0-29.46,0-30.501,0s-1.791,0.791-1.791,0.791L14,60.5V47c0-0.553-0.447-1-1-1 H4c-1.104,0-2-0.896-2-2V4c0-1.104,0.896-2,2-2h56c1.104,0,2,0.896,2,2V44z"/> <path fill="#394240" d="M60,0H4C1.789,0,0,1.789,0,4v40c0,2.211,1.789,4,4,4h8v15c0,0.404,0.243,0.77,0.617,0.924 C12.741,63.976,12.871,64,13,64c0.26,0,0.516-0.102,0.707-0.293L29.414,48H60c2.211,0,4-1.789,4-4V4C64,1.789,62.211,0,60,0z M62,44c0,1.104-0.896,2-2,2c0,0-29.46,0-30.501,0s-1.791,0.791-1.791,0.791L14,60.5V47c0-0.553-0.447-1-1-1H4 c-1.104,0-2-0.896-2-2V4c0-1.104,0.896-2,2-2h56c1.104,0,2,0.896,2,2V44z"/> <path fill="#394240" d="M15,16h16c0.553,0,1-0.447,1-1s-0.447-1-1-1H15c-0.553,0-1,0.447-1,1S14.447,16,15,16z"/> <path fill="#394240" d="M49,20H15c-0.553,0-1,0.447-1,1s0.447,1,1,1h34c0.553,0,1-0.447,1-1S49.553,20,49,20z"/> <path fill="#394240" d="M15,28h24c0.553,0,1-0.447,1-1s-0.447-1-1-1H15c-0.553,0-1,0.447-1,1S14.447,28,15,28z"/> <path fill="#394240" d="M45,32H15c-0.553,0-1,0.447-1,1s0.447,1,1,1h30c0.553,0,1-0.447,1-1S45.553,32,45,32z"/> </g> </g>
</svg>